<svg xmlns="http://www.w3.org/2000/svg" viewBox="0 0 996 342" role="img" aria-label="deCMPfs for rust"><g transform="translate(0.000000,256.000000) scale(0.100000,-0.100000)"
fill="#f5f2ec" stroke="none">
<path d="M4497 2534 l-118 -13 -179 -163 -180 -162 0 -956 0 -955 113 -112
112 -111 155 -11 155 -11 33 0 32 0 0 954 0 953 121 8 120 7 20 -18 19 -17 0
-952 0 -952 83 -6 82 -7 141 0 141 0 91 6 92 7 0 963 0 964 84 0 83 0 62 -6
61 -7 0 -950 0 -949 43 5 42 6 152 12 152 12 115 117 116 117 -3 952 -4 953
-144 143 -144 143 -215 21 -215 20 -126 6 -126 7 -85 -92 -85 -91 -68 70 -68
70 -14 21 -14 20 -257 -1 -257 -1 -118 -14z"/>
<path d="M3420 2314 l-405 -94 -157 -157 -158 -158 0 -676 0 -675 68 -64 67
-64 96 -94 96 -94 406 -78 406 -78 20 -7 21 -6 0 300 0 301 -17 0 -18 0 -85
10 -85 10 -214 24 -214 25 -23 22 -24 22 0 472 0 472 25 23 24 23 123 18 123
19 170 25 170 25 23 5 22 5 0 248 0 249 -23 21 -23 22 -5 -1 -4 -1 -405 -94z"/>
<path d="M6590 1223 l0 -1159 238 53 237 53 17 6 18 5 2 182 3 182 268 35 268
36 109 109 110 110 0 505 -1 505 -129 132 -129 131 -488 132 -488 131 -17 5
-18 5 0 -1158z m781 476 l19 -24 0 -316 0 -316 -17 -15 -18 -16 -125 -3 -125
-4 -3 365 -2 365 4 11 4 10 122 -16 123 -17 18 -24z"/>
<path d="M1215 2210 l-70 -18 -157 -38 -157 -37 -3 -146 -3 -146 -312 -45
-313 -45 -95 -95 -95 -95 0 -360 0 -360 92 -92 93 -92 220 -35 220 -35 306
-51 306 -50 22 0 21 0 0 880 0 880 -2 -1 -3 -1 -70 -18z m-385 -1026 l0 -267
-47 6 -48 6 -130 12 -130 11 -18 16 -17 15 0 197 0 198 18 20 17 21 135 14
135 14 43 2 42 1 0 -266z"/>
<path d="M2340 2069 l-35 -8 -330 -67 -330 -66 -112 -117 -112 -116 -1 -488 0
-489 113 -114 112 -114 445 -75 446 -75 17 0 17 0 0 224 0 225 -8 5 -8 5 -339
31 -340 31 -13 4 -13 5 3 87 3 88 357 3 357 2 1 448 0 447 -80 68 -80 67 -17
-1 -18 -1 -35 -9z m-200 -569 l0 -110 -62 0 -63 0 -82 -7 -83 -6 0 96 0 97 23
5 22 5 105 14 105 14 18 1 17 1 0 -110z"/>
</g><g transform="translate(0.000000,256.000000) scale(0.100000,-0.100000)"
fill="#f15a24" stroke="none">
<path d="M8262 2108 l-112 -93 -2 -70 -2 -70 -1 -55 -1 -55 -2 -44 -2 -44 -75
6 -75 7 0 -190 0 -190 48 -1 47 -1 30 -7 30 -6 0 -467 0 -466 5 -6 6 -5 199
34 200 35 13 0 12 0 0 426 0 426 53 -6 52 -5 83 -7 82 -7 0 177 0 176 -22 4
-23 5 -70 6 -70 6 -42 6 -43 5 0 84 0 84 28 0 28 0 119 -15 120 -15 28 0 27 0
0 179 0 180 -42 6 -43 5 -225 30 -225 30 -10 0 -10 0 -113 -92z"/>
<path d="M9071 1626 l-91 -91 0 -201 0 -200 78 -71 77 -70 70 -7 70 -8 132
-18 133 -19 10 -6 10 -6 0 -38 0 -39 -12 -10 -13 -10 -175 -6 -175 -6 -102 -7
-103 -6 0 -168 0 -169 13 0 12 0 390 62 390 62 83 75 82 74 0 158 0 158 -70
62 -70 63 -218 36 -217 35 -3 51 -3 51 13 11 13 10 108 -12 108 -12 7 -10 7
-11 160 -19 160 -20 3 100 3 100 -73 72 -73 72 -290 36 -290 36 -31 4 -31 4
-92 -92z"/>
</g><g transform="translate(734.87421686747 252.2336) scale(0.11693)"><g transform="translate(0.000000,413.835591) scale(0.100000,-0.100000)"
fill="#b9b3ab" stroke="none">
<path d="M1450 4133 c-405 -43 -717 -239 -874 -548 -89 -176 -126 -357 -126
-621 l0 -174 -225 0 -225 0 0 -315 0 -315 225 0 225 0 0 -1055 0 -1055 395 0
395 0 0 1055 0 1055 360 0 360 0 0 315 0 315 -360 0 -360 0 0 158 c1 338 76
465 315 534 68 19 104 22 245 23 91 0 189 -4 218 -8 l52 -8 0 314 0 314 -107
11 c-99 11 -429 14 -513 5z"/>
<path d="M3175 2815 c-195 -32 -356 -87 -500 -173 -94 -55 -261 -215 -320
-307 -168 -257 -248 -606 -231 -1012 30 -732 366 -1168 998 -1295 165 -33 501
-33 666 0 527 106 852 432 961 967 67 324 46 752 -50 1040 -139 415 -430 667
-884 765 -132 29 -501 37 -640 15z m407 -599 c226 -48 348 -216 387 -531 14
-116 14 -424 0 -540 -47 -383 -219 -549 -552 -533 -265 13 -401 146 -464 453
-28 142 -26 591 4 730 28 124 87 247 148 309 105 105 297 150 477 112z"/>
<path d="M6605 2819 c-233 -30 -427 -142 -551 -315 -50 -70 -79 -82 -88 -36
-3 15 -12 70 -21 122 -9 52 -20 119 -26 148 l-10 52 -325 0 -324 0 0 -1370 0
-1370 395 0 395 0 0 899 0 899 51 46 c165 148 338 201 657 201 l202 0 -2 354
-3 355 -28 7 c-48 13 -248 18 -322 8z"/>
</g></g><g transform="translate(826.32 222.16) scale(0.72)"><path fill="#f15a24" d="m71.05 23.68c-26.06 0-47.27 21.22-47.27 47.27s21.22 47.27 47.27 47.27 47.27-21.22 47.27-47.27-21.22-47.27-47.27-47.27zm-.07 4.2a3.1 3.11 0 0 1 3.02 3.11 3.11 3.11 0 0 1 -6.22 0 3.11 3.11 0 0 1 3.2-3.11zm7.12 5.12a38.27 38.27 0 0 1 26.2 18.66l-3.67 8.28c-.63 1.43.02 3.11 1.44 3.75l7.06 3.13a38.27 38.27 0 0 1 .08 6.64h-3.93c-.39 0-.55.26-.55.64v1.8c0 4.24-2.39 5.17-4.49 5.4-2 .23-4.21-.84-4.49-2.06-1.18-6.63-3.14-8.04-6.24-10.49 3.85-2.44 7.85-6.05 7.85-10.87 0-5.21-3.57-8.49-6-10.1-3.42-2.25-7.2-2.7-8.22-2.7h-40.6a38.27 38.27 0 0 1 21.41-12.08l4.79 5.02c1.08 1.13 2.87 1.18 4 .09zm-44.2 23.02a3.11 3.11 0 0 1 3.02 3.11 3.11 3.11 0 0 1 -6.22 0 3.11 3.11 0 0 1 3.2-3.11zm74.15.14a3.11 3.11 0 0 1 3.02 3.11 3.11 3.11 0 0 1 -6.22 0 3.11 3.11 0 0 1 3.2-3.11zm-68.29.5h5.42v24.44h-10.94a38.27 38.27 0 0 1 -1.24-14.61l6.7-2.98c1.43-.64 2.08-2.31 1.44-3.74zm22.62.26h12.91c.67 0 4.71.77 4.71 3.8 0 2.51-3.1 3.41-5.65 3.41h-11.98zm0 17.56h9.89c.9 0 4.83.26 6.08 5.28.39 1.54 1.26 6.56 1.85 8.17.59 1.8 2.98 5.4 5.53 5.4h16.14a38.27 38.27 0 0 1 -3.54 4.1l-6.57-1.41c-1.53-.33-3.04.65-3.37 2.18l-1.56 7.28a38.27 38.27 0 0 1 -31.91-.15l-1.56-7.28c-.33-1.53-1.83-2.51-3.36-2.18l-6.43 1.38a38.27 38.27 0 0 1 -3.32-3.92h31.27c.35 0 .59-.06.59-.39v-11.06c0-.32-.24-.39-.59-.39h-9.15zm-14.43 25.33a3.11 3.11 0 0 1 3.02 3.11 3.11 3.11 0 0 1 -6.22 0 3.11 3.11 0 0 1 3.2-3.11zm46.05.14a3.11 3.11 0 0 1 3.02 3.11 3.11 3.11 0 0 1 -6.22 0 3.11 3.11 0 0 1 3.2-3.11z"/><path fill="#f15a24" fill-rule="evenodd" d="m115.68 70.95a44.63 44.63 0 0 1 -44.63 44.63 44.63 44.63 0 0 1 -44.63-44.63 44.63 44.63 0 0 1 44.63-44.63 44.63 44.63 0 0 1 44.63 44.63zm-.84-4.31 6.96 4.31-6.96 4.31 5.98 5.59-7.66 2.87 4.78 6.65-8.09 1.32 3.4 7.46-8.19-.29 1.88 7.98-7.98-1.88.29 8.19-7.46-3.4-1.32 8.09-6.65-4.78-2.87 7.66-5.59-5.98-4.31 6.96-4.31-6.96-5.59 5.98-2.87-7.66-6.65 4.78-1.32-8.09-7.46 3.4.29-8.19-7.98 1.88 1.88-7.98-8.19.29 3.4-7.46-8.09-1.32 4.78-6.65-7.66-2.87 5.98-5.59-6.96-4.31 6.96-4.31-5.98-5.59 7.66-2.87-4.78-6.65 8.09-1.32-3.4-7.46 8.19.29-1.88-7.98 7.98 1.88-.29-8.19 7.46 3.4 1.32-8.09 6.65 4.78 2.87-7.66 5.59 5.98 4.31-6.96 4.31 6.96 5.59-5.98 2.87 7.66 6.65-4.78 1.32 8.09 7.46-3.4-.29 8.19 7.98-1.88-1.88 7.98 8.19-.29-3.4 7.46 8.09 1.32-4.78 6.65 7.66 2.87z"/></g></svg>
