<svg xmlns="http://www.w3.org/2000/svg" viewBox="0 0 256 256" role="img" aria-label="deCMPfs"><rect width="256" height="256" rx="48" fill="#1a1626"/><g transform="translate(-688.5 11.1) scale(0.91)"><g transform="translate(0.000000,256.000000) scale(0.100000,-0.100000)"
fill="#f15a24" stroke="none">
<path d="M8262 2108 l-112 -93 -2 -70 c-1 -38 -3 -95 -3 -125 -1 -30 -2 -75
-3 -99 l-2 -44 -75 6 -75 7 0 -190 0 -190 48 -1 c26 -1 60 -4 77 -8 l30 -6 0
-467 c0 -256 2 -469 5 -472 3 -3 96 10 205 29 110 19 206 35 213 35 9 0 12 92
12 426 l0 426 53 -6 c28 -3 89 -8 135 -12 l82 -7 0 177 c0 202 13 180 -115
191 -38 3 -89 8 -112 12 l-43 5 0 84 0 84 28 0 c15 0 82 -7 147 -15 66 -8 132
-15 148 -15 l27 0 0 179 0 180 -42 6 c-188 25 -495 65 -503 65 -6 0 -61 -42
-123 -92z"/>
<path d="M9071 1626 l-91 -91 0 -201 0 -200 78 -71 c77 -69 78 -70 147 -77
120 -13 334 -44 345 -51 14 -9 12 -81 -2 -93 -7 -5 -92 -12 -188 -16 -96 -3
-221 -9 -277 -13 l-103 -6 0 -168 c0 -129 3 -169 13 -169 6 0 188 28 402 62
l390 62 83 75 82 74 0 158 0 158 -70 62 -70 63 -218 36 -217 35 -3 51 c-2 33
2 55 10 62 16 13 226 -8 236 -24 4 -6 79 -19 167 -30 l160 -20 3 100 3 100
-73 72 -73 72 -290 36 c-159 20 -304 38 -321 40 -28 4 -40 -5 -123 -88z"/>
</g></g></svg>
