<svg xmlns="http://www.w3.org/2000/svg" viewBox="0 0 718 200" role="img" aria-label="deCMPfs"><g transform="translate(3.00 23.50) scale(0.85)"><path fill="#1a1626" fill-rule="evenodd" d="M78 30 H112 V150 H20 V66 H78 Z M36 84 H78 V134 H36 Z"/></g><g transform="translate(0.80 23.50) scale(0.85)"><path fill="#1a1626" fill-rule="evenodd" d="M124 30 H204 V150 H124 Z M150 52 H184 V86 H150 Z M150 110 H204 V132 H150 Z"/></g><g transform="translate(-63.90 -3.50) scale(1.15)"><path fill="#1a1626" d="M306 30 H214 V150 H306 V120 H244 V60 H306 Z"/></g><g transform="translate(-67.40 -3.50) scale(1.15)"><path fill="#1a1626" d="M316 150 V30 H358 L375 70 L392 30 H434 V150 H400 V96 L375 130 L350 96 V150 Z"/></g><g transform="translate(-70.90 -3.50) scale(1.15)"><path fill="#1a1626" fill-rule="evenodd" d="M444 150 V30 H532 V96 H478 V150 Z M478 54 H508 V72 H478 Z"/></g><g transform="translate(34.00 14.50) scale(0.95)"><path fill="#f15a24" d="M566 42 H600 V150 H566 Z M566 30 H606 V48 H566 Z M542 64 H610 V82 H542 Z"/></g><g transform="translate(42.00 14.50) scale(0.95)"><path fill="#f15a24" d="M610 30 H690 V54 H610 Z M610 30 H634 V90 H610 Z M610 78 H690 V102 H610 Z M666 78 H690 V150 H666 Z M610 126 H690 V150 H610 Z"/></g></svg>
